<?xml version="1.0" encoding="utf-8"?>
<!-- Generator: Adobe Illustrator 16.0.0, SVG Export Plug-In . SVG Version: 6.00 Build 0)  -->
<!DOCTYPE svg PUBLIC "-//W3C//DTD SVG 1.1//EN" "http://www.w3.org/Graphics/SVG/1.1/DTD/svg11.dtd">
<svg version="1.1" id="Layer_1" xmlns="http://www.w3.org/2000/svg" xmlns:xlink="http://www.w3.org/1999/xlink" x="0px" y="0px"
	 width="1121.411px" height="273.579px" viewBox="0 0 1121.411 273.579" enable-background="new 0 0 1121.411 273.579"
	 xml:space="preserve">
<g>
	<path fill="#FFFFFF" stroke="#FFFFFF" stroke-width="5" stroke-miterlimit="10" d="M63.942,97.806
		c0,11.312,1.286,20.824,3.856,28.536s3.856,12.171,3.856,13.368c0,3.6-1.799,5.398-5.398,5.398c-4.973,0-9.601-5.182-13.882-15.553
		c-4.286-10.368-6.427-21.036-6.427-32.006c0-25.708,7.283-47.56,21.852-65.555C82.363,13.998,100.789,5,123.07,5
		c22.278,0,40.787,9.428,55.529,28.279c14.738,18.855,22.109,42.077,22.109,69.668c0,18.168-3.772,35.007-11.312,50.516
		c-7.544,15.514-17.827,27.893-30.85,37.148c13.195,17.996,20.221,28.021,21.081,30.078c0.855,2.057,1.285,3.941,1.285,5.656
		c0,1.711-0.815,3.555-2.442,5.527c-1.631,1.967-3.471,2.955-5.527,2.955c-3.945,0-7.287-2.057-10.026-6.17
		c-0.687-0.859-4.458-6.6-11.311-17.225l-7.97-12.596c-10.97,4.455-21.852,6.684-32.649,6.684
		c-25.708,0-47.817-10.109-66.327-30.335c-18.341-20.394-27.508-45.331-27.508-74.811c0-21.763,2.141-35.131,6.427-40.104
		c2.057-2.571,4.583-3.856,7.584-3.856c2.997,0,5.27,1.028,6.812,3.085c1.711,1.715,2.571,3.599,2.571,5.656
		s-0.687,5.186-2.057,9.383c-1.374,4.202-2.057,13.497-2.057,27.893c0,23.31,7.283,43.233,21.852,59.771
		c14.565,16.543,32.135,24.809,52.702,24.809c10.283,0,17.565-1.285,21.852-3.855c-13.541-19.193-20.309-30.207-20.309-33.035
		s0.771-5.311,2.313-7.455c1.542-2.141,3.342-3.254,5.399-3.342c2.057-0.085,3.94,0.474,5.656,1.67
		c1.711,1.201,3.041,2.486,3.984,3.857c0.94,1.373,2.828,4.498,5.656,9.383c2.828,4.885,6.981,11.869,12.469,20.952
		c10.283-7.367,18.421-17.694,24.422-30.979c5.997-13.28,8.998-27.636,8.998-43.061c0-21.936-5.571-40.273-16.71-55.015
		c-11.143-14.738-25.065-22.109-41.775-22.109c-16.71,0-30.721,6.941-42.033,20.824C69.598,58.729,63.942,76.384,63.942,97.806z"/>
	<path fill="#FFFFFF" stroke="#FFFFFF" stroke-width="5" stroke-miterlimit="10" d="M244.667,91.636l-2.057,56.558
		c0,11.825,2.527,21.338,7.584,28.535c5.053,7.199,11.954,10.797,20.695,10.797s17.225-4.883,25.451-14.652
		c8.054-9.938,13.794-21.081,17.224-33.421l-0.771-55.786c0-8.741,3.253-13.111,9.769-13.111c7.881,0,11.826,5.873,11.826,17.61
		c0,11.741-1.715,28.837-5.142,51.287c0,12.513,0.899,22.925,2.699,31.235c1.799,8.314,4.069,12.982,6.812,14.012
		c1.028,0.514,2.27,0.859,3.728,1.027c1.454,0.172,2.482,0.43,3.085,0.771c0.599,0.346,0.9,1.027,0.9,2.057
		c0,4.627-1.414,8.398-4.242,11.311c-2.828,2.912-6.387,4.371-10.669,4.371c-10.797,0-16.196-10.967-16.196-32.906
		c-12.686,21.939-28.625,32.906-47.817,32.906c-13.714,0-24.338-5.053-31.878-15.168c-7.544-10.451-11.312-22.965-11.312-37.533
		l1.542-38.819c0-5.31-0.687-11.697-2.057-19.152c-1.374-7.455-2.057-12.123-2.057-14.011c0-1.884,1.068-3.856,3.213-5.913
		c2.141-2.057,4.756-3.085,7.841-3.085C240.723,70.555,244.667,77.585,244.667,91.636z"/>
	<path fill="#FFFFFF" stroke="#FFFFFF" stroke-width="5" stroke-miterlimit="10" d="M415.371,148.708
		c-8.914,0-19.795-1.285-32.649-3.855c1.028,12.17,5.527,22.538,13.497,31.105c7.969,8.572,17.264,12.855,27.893,12.855
		c10.625,0,19.365-2.611,26.222-7.842c6.853-5.227,11.352-7.841,13.497-7.841c2.141,0,3.856,0.643,5.142,1.928
		c1.285,1.286,1.928,2.872,1.928,4.757c0,4.799-4.929,10.283-14.782,16.453c-9.857,6.17-20.526,9.254-32.006,9.254
		c-17.827,0-32.006-6.299-42.547-18.895c-10.54-12.598-16.156-27.637-16.839-45.118c-9.086-2.912-13.625-7.367-13.625-13.368
		c0-3.94,1.454-6.511,4.37-7.712c1.028-0.341,2.354-0.514,3.985-0.514c1.627,0,3.896,0.771,6.812,2.314
		c3.941-15.594,11.095-28.319,21.466-38.176c10.368-9.854,22.535-14.782,36.505-14.782c13.967,0,25.234,3.856,33.806,11.568
		c8.568,7.712,12.854,17.783,12.854,30.207c0,12.428-5.314,21.812-15.939,28.15C444.333,145.538,431.137,148.708,415.371,148.708z
		 M426.425,85.98c-11.312,0-20.783,4.242-28.407,12.726c-7.628,8.484-12.641,18.381-15.039,29.693
		c9.255,2.743,19.667,4.113,31.235,4.113c11.568,0,20.863-1.968,27.893-5.913c7.025-3.94,10.54-9.339,10.54-16.196
		c0-6.853-2.358-12.637-7.07-17.353C440.862,88.338,434.479,85.98,426.425,85.98z"/>
	<path fill="#FFFFFF" stroke="#FFFFFF" stroke-width="5" stroke-miterlimit="10" d="M580.67,164.647
		c0,11.484-4.756,20.951-14.268,28.406c-9.512,7.455-20.868,11.184-34.063,11.184c-13.2,0-24.768-2.996-34.706-8.998
		c-9.769-6.17-14.653-12.252-14.653-18.252c0-3.941,1.627-6.596,4.884-7.97c3.254-1.37,5.74-1.197,7.456,0.515
		c0.341,0.172,3.768,3.514,10.283,10.025c1.884,1.715,5.398,3.471,10.54,5.27c5.142,1.801,9.681,2.699,13.625,2.699
		c9.596,0,17.393-1.967,23.394-5.912c5.997-3.941,8.998-9.512,8.998-16.71c0-9.083-8.572-16.538-25.708-22.366
		c-19.024-6.511-31.195-12.083-36.505-16.71c-2.571-2.226-4.929-5.182-7.07-8.869c-2.145-3.684-3.213-7.584-3.213-11.697
		c0-9.255,4.242-17.353,12.726-24.294c8.483-6.941,18.638-10.412,30.464-10.412s21.422,2.017,28.793,6.042
		c7.367,4.029,11.054,8.528,11.054,13.497c0,5.656-3,8.484-8.998,8.484c-2.402,0-4.973-0.94-7.712-2.828
		c-8.227-5.656-16.156-8.483-23.78-8.483c-7.628,0-13.413,1.715-17.353,5.142c-4.627,3.258-6.941,7.07-6.941,11.44
		c0,4.371,2.226,7.929,6.684,10.669c4.455,2.744,11.737,6.129,21.852,10.155c10.11,4.029,16.28,6.555,18.51,7.583
		c7.54,3.258,13.709,7.713,18.51,13.368C578.268,151.278,580.67,157.622,580.67,164.647z"/>
	<path fill="#FFFFFF" stroke="#FFFFFF" stroke-width="5" stroke-miterlimit="10" d="M649.306,89.322l-21.337-0.514l-0.515,60.928
		c0,15.771,0.599,26.009,1.8,30.722c1.197,4.715,4.628,7.068,10.283,7.068c2.739,0,5.997-0.898,9.769-2.699
		c3.77-1.799,6.082-2.699,6.941-2.699c3.6,0,5.398,1.801,5.398,5.398c0,3.6-3.172,7.287-9.512,11.055
		c-6.342,3.768-12.597,5.656-18.767,5.656c-14.91,0-22.366-10.967-22.366-32.906l-0.257-82.522c-5.655,0.514-9.6,0.771-11.825,0.771
		c-8.572,0-12.854-2.828-12.854-8.483s4.282-8.484,12.854-8.484l11.312,0.514l-0.514-28.792c0-8.568,3.253-12.854,9.769-12.854
		c6.511,0,9.769,4.286,9.769,12.854l-0.771,29.05l20.823-1.028c8.568,0,12.855,2.916,12.855,8.741
		C662.161,86.583,657.874,89.322,649.306,89.322z"/>
	<path fill="#FFFFFF" stroke="#FFFFFF" stroke-width="5" stroke-miterlimit="10" d="M687.866,15.283
		c7.025,0,10.54,4.113,10.54,12.34c0,3.772-1.245,7.327-3.728,10.669c-2.486,3.342-5.442,5.013-8.869,5.013
		c-7.198,0-10.797-4.371-10.797-13.111c0-4.113,1.241-7.624,3.728-10.54C681.223,16.741,684.268,15.283,687.866,15.283z
		 M696.35,83.409l-1.285,53.987l1.285,53.987c0,8.572-3.257,12.854-9.769,12.854c-6.516,0-9.77-4.281-9.77-12.854l1.286-53.987
		l-1.286-53.987c0-8.568,3.254-12.854,9.77-12.854C693.093,70.555,696.35,74.841,696.35,83.409z"/>
	<path fill="#FFFFFF" stroke="#FFFFFF" stroke-width="5" stroke-miterlimit="10" d="M820.262,175.187
		c4.282,0,6.428,2.272,6.428,6.812c0,4.545-4.974,9.641-14.911,15.297c-10.114,5.482-20.566,8.227-31.363,8.227
		c-17.827,0-32.822-6.596-44.989-19.795c-11.998-13.195-17.996-29.307-17.996-48.331c0-19.024,5.998-35.131,17.996-48.331
		C747.42,75.87,763.359,69.27,783.242,69.27c10.625,0,20.137,2.442,28.536,7.327c8.396,4.885,12.597,9.729,12.597,14.525
		c0,4.8-1.715,7.885-5.142,9.255c-1.028,0.346-2.442,0.514-4.241,0.514c-1.8,0-4.073-1.197-6.812-3.599
		c-9.087-7.54-18.169-11.312-27.251-11.312c-11.825,0-22.197,4.973-31.106,14.911c-8.741,9.942-13.111,22.069-13.111,36.377
		c0,14.312,4.499,26.479,13.497,36.505s20.008,15.04,33.034,15.04c10.283,0,20.137-3.428,29.564-10.283
		C816.061,176.303,818.547,175.187,820.262,175.187z"/>
	<path fill="#FFFFFF" stroke="#FFFFFF" stroke-width="5" stroke-miterlimit="10" d="M944.687,139.453
		c0,12.513,0.899,22.925,2.699,31.235c1.799,8.314,4.068,12.982,6.812,14.012c1.028,0.514,2.27,0.859,3.728,1.027
		c1.454,0.172,2.482,0.43,3.085,0.771c0.599,0.346,0.899,1.027,0.899,2.057c0,4.801-1.285,8.611-3.855,11.439
		c-2.571,2.828-6.299,4.242-11.184,4.242s-8.7-3.125-11.439-9.383c-2.744-6.254-4.113-14.438-4.113-24.552
		c-4.628,9.942-11.055,18.085-19.281,24.423c-8.227,6.342-17.525,9.512-27.894,9.512c-10.371,0-19.24-3.426-26.607-10.283
		c-13.714-12.682-20.566-30.592-20.566-53.729c0-18.679,5.398-34.963,16.196-48.845c10.797-13.882,24.68-20.824,41.646-20.824
		c12.854,0,23.993,4.371,33.421,13.111c0-8.741,3.253-13.111,9.769-13.111c7.881,0,11.826,5.873,11.826,17.61
		C949.828,99.907,948.112,117.002,944.687,139.453z M929.775,141.766l-1.285-39.59c-10.114-9.938-20.823-14.911-32.135-14.911
		s-20.996,5.057-29.051,15.167c-8.058,10.115-12.082,22.326-12.082,36.634c0,14.312,2.655,25.965,7.969,34.963
		c5.311,8.998,12.682,13.496,22.109,13.496c9.424,0,18.124-4.197,26.094-12.596C919.363,166.535,925.489,155.48,929.775,141.766z"/>
	<path fill="#FFFFFF" stroke="#FFFFFF" stroke-width="5" stroke-miterlimit="10" d="M1000.215,19.14l-1.285,86.122l1.285,86.122
		c0,8.572-3.257,12.854-9.769,12.854c-6.516,0-9.77-4.281-9.77-12.854l1.286-86.122l-1.286-86.122c0-8.568,3.254-12.854,9.77-12.854
		C996.958,6.286,1000.215,10.571,1000.215,19.14z"/>
	<path fill="#FFFFFF" stroke="#FFFFFF" stroke-width="5" stroke-miterlimit="10" d="M1116.415,164.647
		c0,11.484-4.756,20.951-14.269,28.406c-9.512,7.455-20.867,11.184-34.062,11.184c-13.199,0-24.769-2.996-34.706-8.998
		c-9.769-6.17-14.653-12.252-14.653-18.252c0-3.941,1.627-6.596,4.885-7.97c3.253-1.37,5.74-1.197,7.455,0.515
		c0.342,0.172,3.768,3.514,10.283,10.025c1.884,1.715,5.398,3.471,10.54,5.27c5.142,1.801,9.681,2.699,13.625,2.699
		c9.597,0,17.394-1.967,23.395-5.912c5.997-3.941,8.998-9.512,8.998-16.71c0-9.083-8.572-16.538-25.708-22.366
		c-19.024-6.511-31.195-12.083-36.506-16.71c-2.57-2.226-4.929-5.182-7.069-8.869c-2.145-3.684-3.214-7.584-3.214-11.697
		c0-9.255,4.242-17.353,12.726-24.294c8.484-6.941,18.639-10.412,30.464-10.412c11.826,0,21.422,2.017,28.793,6.042
		c7.367,4.029,11.055,8.528,11.055,13.497c0,5.656-3.001,8.484-8.998,8.484c-2.401,0-4.973-0.94-7.712-2.828
		c-8.227-5.656-16.156-8.483-23.78-8.483c-7.628,0-13.412,1.715-17.353,5.142c-4.628,3.258-6.941,7.07-6.941,11.44
		c0,4.371,2.226,7.929,6.685,10.669c4.454,2.744,11.737,6.129,21.852,10.155c10.11,4.029,16.28,6.555,18.51,7.583
		c7.539,3.258,13.709,7.713,18.51,13.368C1114.013,151.278,1116.415,157.622,1116.415,164.647z"/>
</g>
</svg>
